<svg width="122.574" height="29.057" viewBox="0 0 32.431 7.688" xmlns="http://www.w3.org/2000/svg" xmlns:xlink="http://www.w3.org/1999/xlink" overflow="hidden"><defs><linearGradient id="linearGradient3213"><stop offset="0" stop-color="#22577A"/><stop offset="1" stop-color="#80ED99"/></linearGradient><linearGradient x1="-179.04" y1="79.947" x2="-179.04" y2="80.719" gradientUnits="userSpaceOnUse" xlink:href="#linearGradient3213" id="linearGradient33242" gradientTransform="matrix(0.82693 0 0 0.82693 177.34 -123.33)"></linearGradient><linearGradient x1="-179.04" y1="79.947" x2="-179.04" y2="80.719" gradientUnits="userSpaceOnUse" xlink:href="#linearGradient3213" id="linearGradient33244" gradientTransform="matrix(1.0336 0 0 1.0336 216.05 -139.93)"></linearGradient><linearGradient x1="-179.04" y1="79.947" x2="-179.04" y2="80.719" gradientUnits="userSpaceOnUse" xlink:href="#linearGradient3213" id="linearGradient33246" gradientTransform="matrix(0.62012 0 0 0.62012 138.94 -106.72)"></linearGradient></defs><g transform="matrix(0.99994 0 0 0.99994 7.4797 153.06)"><g stroke-width="0.19572" fill="#22577A"><path d="M-7.4802-147.25C-7.40375-148.017-7.3426-148.871-7.29673-149.811-7.25086-150.754-7.22411-151.64-7.21646-152.468-6.95652-152.462-6.73991-152.46-6.56662-152.46-6.44938-152.46-6.26208-152.462-6.0047-152.468-6.03783-152.009-6.06841-151.487-6.09645-150.901L-6.17288-149.368C-6.19581-148.929-6.21238-148.494-6.22258-148.061L-5.5651-148.053C-4.94839-148.053-4.54319-148.054-4.3495-148.057-4.15582-148.062-3.96469-148.07-3.77611-148.079-3.79904-147.83-3.81942-147.553-3.83726-147.25-4.50746-147.255-5.08086-147.258-5.55746-147.258L-6.76156-147.254Z"/><path d="M-3.7952-145.49C-3.84107-145.872-3.87802-146.147-3.90605-146.316-3.6614-146.201-3.43078-146.144-3.21417-146.144-3.14792-146.144-3.08039-146.153-3.01157-146.17-2.94277-146.186-2.87906-146.209-2.82045-146.239-2.78222-146.26-2.74399-146.289-2.70578-146.327-2.66501-146.365-2.61022-146.436-2.54141-146.537-2.47261-146.639-2.41272-146.74-2.36174-146.839-2.32097-146.923-2.27892-147.029-2.23559-147.157L-3.0307-149.485-3.61173-151.136C-3.34415-151.131-3.15175-151.128-3.03452-151.128-2.89945-151.128-2.72234-151.131-2.50318-151.136-2.44966-150.925-2.39997-150.741-2.35411-150.586L-1.99097-149.385C-1.87884-149.016-1.79856-148.738-1.75015-148.552-1.71957-148.43-1.68389-148.268-1.64313-148.067-1.56668-148.298-1.50043-148.487-1.44436-148.632-1.34498-148.897-1.20609-149.252-1.0277-149.695L-0.65691-150.609C-0.590661-150.772-0.523127-150.947-0.45431-151.136-0.224957-151.131-0.0503933-151.128 0.06938-151.128 0.17896-151.128 0.362443-151.131 0.61983-151.136L-0.85187-147.837-1.49024-146.381C-1.57944-146.192-1.66481-146.046-1.74635-145.941-1.8126-145.852-1.88522-145.776-1.96422-145.712-2.04067-145.651-2.12222-145.6-2.20887-145.559-2.31845-145.508-2.43695-145.467-2.56437-145.437-2.70962-145.406-2.85615-145.391-3.00397-145.391-3.08807-145.391-3.2053-145.398-3.35565-145.414-3.506-145.429-3.65253-145.455-3.79525-145.49Z"/><path d="M4.8552-147.25C4.64369-147.255 4.47932-147.258 4.36209-147.258 4.23468-147.258 4.05884-147.255 3.83457-147.25L3.86897-147.915C3.75684-147.77 3.66-147.658 3.57845-147.579 3.49945-147.5 3.40006-147.426 3.28029-147.357 3.16306-147.291 3.03564-147.241 2.89803-147.208 2.76042-147.175 2.61771-147.158 2.4699-147.158 2.22525-147.158 1.9959-147.203 1.78184-147.292 1.56777-147.381 1.38556-147.506 1.23521-147.667 1.08486-147.83 0.97401-148.022 0.90265-148.244 0.831303-148.468 0.79563-148.701 0.79563-148.943 0.79563-149.277 0.859337-149.602 0.98675-149.918 1.11416-150.237 1.28873-150.494 1.51044-150.69 1.73215-150.887 1.98316-151.025 2.26349-151.107 2.54381-151.189 2.84452-151.229 3.16561-151.229 3.39751-151.229 3.65999-151.208 3.95306-151.164 3.97089-151.496 3.97981-151.843 3.97981-152.208L3.97981-152.468C4.21936-152.463 4.40284-152.46 4.53026-152.46 4.69591-152.46 4.88194-152.463 5.08835-152.468 5.03228-151.821 4.97877-150.939 4.9278-149.823 4.87939-148.709 4.85518-147.851 4.85518-147.25ZM3.91102-150.438C3.71989-150.489 3.53641-150.514 3.36057-150.514 3.15925-150.514 2.96685-150.486 2.78336-150.43 2.59988-150.374 2.43678-150.279 2.29407-150.144 2.1539-150.009 2.0456-149.835 1.96915-149.624 1.8927-149.412 1.85448-149.208 1.85448-149.012 1.85448-148.816 1.88888-148.636 1.95768-148.473 2.02903-148.31 2.13861-148.181 2.28642-148.087 2.43422-147.993 2.60114-147.946 2.78717-147.946 2.92734-147.946 3.05476-147.97 3.16943-148.018 3.28411-148.069 3.38859-148.146 3.48288-148.248 3.57716-148.352 3.65616-148.486 3.71988-148.649 3.78615-148.812 3.83329-149.029 3.8613-149.299 3.87913-149.498 3.8957-149.877 3.911-150.438Z"/><path d="M6.0058-151.8C6.01597-152.062 6.02105-152.264 6.02105-152.404L6.02105-152.526C6.25295-152.521 6.44153-152.518 6.58679-152.518 6.78556-152.518 6.97032-152.521 7.14106-152.526 7.13339-152.463 7.12831-152.39 7.12581-152.308L7.10681-151.8C6.91313-151.805 6.73474-151.808 6.57165-151.808 6.40855-151.808 6.21997-151.805 6.00591-151.8ZM5.79938-147.247C5.83761-147.63 5.86437-147.949 5.87965-148.207 5.90513-148.615 5.92679-149.085 5.94462-149.617 5.96501-150.15 5.97902-150.656 5.98667-151.135 6.23641-151.13 6.42372-151.127 6.54859-151.127 6.66327-151.127 6.8493-151.13 7.10669-151.135 7.07101-150.691 7.0417-150.268 7.01877-149.866 6.99839-149.463 6.9831-149.002 6.9729-148.482 6.96273-147.962 6.95765-147.551 6.95765-147.247 6.72575-147.253 6.53972-147.255 6.39956-147.255 6.26705-147.255 6.067-147.253 5.79942-147.247Z"/><path d="M8.1809-150.28C8.21658-150.463 8.23824-150.592 8.24587-150.666 8.25604-150.74 8.2726-150.852 8.29557-151.002 8.64215-151.084 8.94796-151.141 9.21299-151.174 9.47802-151.208 9.73413-151.224 9.98132-151.224 10.2616-151.224 10.519-151.191 10.7535-151.125 10.9879-151.061 11.1714-150.958 11.3039-150.815 11.4364-150.672 11.5027-150.467 11.5027-150.2 11.5027-150.054 11.4823-149.684 11.4415-149.087 11.4008-148.494 11.3766-147.879 11.3689-147.245 11.1752-147.25 10.9968-147.253 10.8337-147.253 10.6783-147.253 10.4961-147.25 10.2871-147.245 10.3203-147.553 10.347-147.91 10.3674-148.315L10.4171-149.267C10.3203-149.203 10.2464-149.159 10.1954-149.133 10.1444-149.108 10.0871-149.083 10.0234-149.061 9.95966-149.04 9.84753-149.007 9.68698-148.961 9.52643-148.918 9.39774-148.88 9.3009-148.846 9.20407-148.813 9.11615-148.775 9.03714-148.732 8.96069-148.691 8.89571-148.644 8.84219-148.59 8.78868-148.539 8.74918-148.485 8.72369-148.426 8.70076-148.37 8.68929-148.309 8.68929-148.242 8.68929-148.135 8.71987-148.042 8.78104-147.963 8.84475-147.887 8.92375-147.833 9.01804-147.803 9.11232-147.772 9.22317-147.757 9.3506-147.757 9.43215-147.757 9.51752-147.763 9.60671-147.776 9.69846-147.789 9.82078-147.821 9.97368-147.872 9.92017-147.726 9.85773-147.51 9.78638-147.222 9.60545-147.191 9.46146-147.172 9.35443-147.164 9.2474-147.157 9.14801-147.153 9.05627-147.153 8.73518-147.153 8.47142-147.196 8.265-147.283 8.05858-147.369 7.90568-147.507 7.80629-147.696 7.70946-147.884 7.66104-148.074 7.66104-148.265 7.66104-148.375 7.68016-148.483 7.71839-148.59 7.75662-148.697 7.81269-148.795 7.88659-148.884 7.96049-148.974 8.05605-149.059 8.17328-149.141 8.29051-149.225 8.45998-149.305 8.68168-149.381 8.90339-149.46 9.19645-149.539 9.56087-149.618 9.6577-149.639 9.75836-149.663 9.86285-149.691 9.96733-149.722 10.0502-149.751 10.1113-149.779 10.175-149.807 10.2298-149.843 10.2757-149.886 10.3216-149.932 10.3547-149.979 10.3751-150.027 10.398-150.076 10.4095-150.125 10.4095-150.176 10.4095-150.276 10.3763-150.36 10.3101-150.429 10.2464-150.498 10.1623-150.545 10.0578-150.57 9.95587-150.598 9.84246-150.612 9.71759-150.612 9.25379-150.612 8.74156-150.501 8.18089-150.28Z"/><path d="M12.226-147.25C12.3025-148.009 12.3598-148.882 12.398-149.868 12.4362-150.855 12.4553-151.721 12.4553-152.468 12.7612-152.463 13.0173-152.46 13.2237-152.46 13.4454-152.46 13.662-152.464 13.8735-152.471 14.0876-152.479 14.3131-152.483 14.5501-152.483 14.8457-152.483 15.1095-152.466 15.3414-152.433 15.5758-152.4 15.7835-152.324 15.9645-152.204 16.1454-152.084 16.2792-151.939 16.3658-151.768 16.455-151.597 16.4996-151.398 16.4996-151.172 16.4996-151.029 16.4831-150.893 16.4499-150.763 16.4168-150.635 16.3671-150.514 16.3009-150.4 16.2372-150.287 16.1607-150.188 16.0715-150.101 15.9823-150.017 15.8931-149.95 15.8039-149.899 15.7173-149.85 15.6179-149.808 15.5058-149.773 15.3937-149.737 15.2433-149.694 15.0547-149.643L15.3146-149.138C15.3988-148.977 15.558-148.69 15.7925-148.274L17.1574-145.734C17.1779-145.698 17.2389-145.582 17.3408-145.386 17.0299-145.391 16.8248-145.394 16.7254-145.394 16.6031-145.394 16.3878-145.392 16.0794-145.386L14.6763-148.266C14.6024-148.422 14.5132-148.605 14.4087-148.817L13.9462-149.746C13.9003-149.832 13.8366-149.962 13.7551-150.136 13.9258-150.105 14.0813-150.09 14.2214-150.09 14.4406-150.09 14.6406-150.126 14.8216-150.197 15.0025-150.268 15.1414-150.378 15.2382-150.526 15.335-150.676 15.3835-150.839 15.3835-151.015 15.3835-151.122 15.3617-151.221 15.3185-151.313 15.2777-151.405 15.2076-151.482 15.1082-151.546 15.0089-151.61 14.8904-151.651 14.7528-151.669 14.6151-151.686 14.4775-151.695 14.3399-151.695 14.2635-151.695 14.159-151.694 14.0265-151.691 13.8939-151.689 13.7309-151.687 13.5372-151.687L13.4684-150.116 13.3958-147.249 12.8033-147.257C12.709-147.257 12.5166-147.255 12.226-147.249Z"/><path d="M13.725-145.39C14.227-146.053 14.7264-146.742 15.2437-147.458L15.8881-148.18 16.7291-149.453C16.91-149.448 17.1037-149.445 17.3101-149.445 17.5038-149.445 17.7038-149.447 17.9102-149.453L17.3139-148.669C17.1789-148.489 16.7418-147.896 16.5571-147.645 16.3723-147.394 15.9867-146.964 15.9344-146.881 15.8822-146.798 15.6898-146.505 15.514-146.25 15.3407-145.995 15.1534-145.709 14.952-145.39 14.738-145.395 14.5443-145.398 14.371-145.398 14.1773-145.398 13.962-145.396 13.725-145.39Z"/></g><g transform="translate(-7.5178 -92.832)"><path d="M29.282-59.573C28.6299-59.573 28.1012-59.0443 28.1012-58.3922 28.1012-57.9175 28.3812-57.5085 28.785-57.321 28.947-57.2425 29.0497-57.0784 29.0496-56.8985 29.0496-56.7187 28.9468-56.5547 28.785-56.4763L28.785-56.475C28.3812-56.2875 28.1012-55.8785 28.1012-55.4038 28.1012-54.7517 28.6299-54.223 29.282-54.223 29.9341-54.223 30.4628-54.7517 30.4628-55.4038 30.4628-55.8772 30.1843-56.2855 29.7823-56.4738L29.7823-56.4746C29.7814-56.4751 29.7806-56.4755 29.7798-56.4759 29.7692-56.4811 29.7589-56.4866 29.7488-56.4925 29.7386-56.4983 29.7287-56.5045 29.719-56.5111 29.7092-56.5176 29.6997-56.5245 29.6905-56.5318 29.6814-56.539 29.6725-56.5466 29.664-56.5545 29.6554-56.5626 29.6472-56.571 29.6392-56.5797 29.6313-56.5883 29.6237-56.5971 29.6165-56.6062 29.6091-56.6153 29.6021-56.6247 29.5954-56.6343 29.5888-56.644 29.5826-56.6539 29.5768-56.6641 29.571-56.6742 29.5656-56.6845 29.5606-56.6951 29.5556-56.7056 29.5509-56.7164 29.5466-56.7273 29.5423-56.7382 29.5385-56.7492 29.535-56.7604 29.5316-56.7716 29.5285-56.7829 29.5259-56.7943 29.5233-56.8056 29.5211-56.8171 29.5193-56.8286 29.5175-56.8403 29.5161-56.852 29.5151-56.8637 29.5143-56.8753 29.5139-56.8869 29.5139-56.8985 29.5139-56.9102 29.5143-56.9219 29.5151-56.9336 29.5161-56.9454 29.5175-56.9571 29.5193-56.9688 29.5211-56.9803 29.5233-56.9917 29.5259-57.0031 29.5285-57.0145 29.5316-57.0258 29.535-57.037 29.5385-57.0481 29.5423-57.0592 29.5466-57.07 29.5509-57.081 29.5556-57.0917 29.5606-57.1023 29.5656-57.1128 29.571-57.1232 29.5768-57.1333 29.5826-57.1435 29.5888-57.1534 29.5954-57.1631 29.6021-57.1727 29.6091-57.1821 29.6165-57.1912 29.6237-57.2003 29.6313-57.2091 29.6392-57.2176 29.6472-57.2262 29.6554-57.2345 29.664-57.2424 29.6725-57.2505 29.6814-57.2582 29.6905-57.2656 29.6997-57.2728 29.7092-57.2797 29.719-57.2863 29.7287-57.2928 29.7386-57.299 29.7488-57.3049 29.7589-57.3108 29.7692-57.3163 29.7798-57.3214 29.7806-57.3218 29.7814-57.3223 29.7823-57.3227 30.1843-57.511 30.4628-57.919 30.4628-58.3923 30.4628-59.0444 29.9341-59.5731 29.282-59.5731Z" color="#000000" stroke-width="0.71335" fill="url(#linearGradient33242)" opacity="0.72"/><path d="M30.993-60.242C30.1779-60.242 29.5171-59.5812 29.5171-58.7661 29.5171-58.1728 29.867-57.6616 30.3718-57.4272 30.5742-57.3291 30.7027-57.124 30.7026-56.8991 30.7025-56.6743 30.5741-56.4694 30.3718-56.3714L30.3718-56.3698C29.8671-56.1354 29.5171-55.6242 29.5171-55.0309 29.5171-54.2159 30.1779-53.555 30.993-53.555 31.8081-53.555 32.4689-54.2158 32.4689-55.0309 32.4689-55.6225 32.1208-56.1329 31.6183-56.3683L31.6183-56.3693C31.6173-56.3699 31.6162-56.3704 31.6152-56.3709 31.602-56.3773 31.5891-56.3842 31.5765-56.3916 31.5638-56.3989 31.5514-56.4067 31.5392-56.4149 31.527-56.423 31.5151-56.4317 31.5036-56.4407 31.4922-56.4498 31.4812-56.4592 31.4705-56.4691 31.4598-56.4792 31.4494-56.4898 31.4395-56.5006 31.4296-56.5113 31.4201-56.5223 31.4111-56.5337 31.4019-56.5451 31.3931-56.5568 31.3847-56.5689 31.3765-56.581 31.3688-56.5934 31.3615-56.6061 31.3543-56.6187 31.3476-56.6317 31.3413-56.6448 31.335-56.658 31.3291-56.6715 31.3238-56.6851 31.3184-56.6987 31.3136-56.7125 31.3093-56.7265 31.305-56.7405 31.3012-56.7546 31.2979-56.7689 31.2946-56.783 31.2918-56.7974 31.2896-56.8117 31.2873-56.8263 31.2856-56.841 31.2844-56.8557 31.2834-56.8701 31.2829-56.8846 31.2829-56.8991 31.2829-56.9137 31.2834-56.9284 31.2844-56.943 31.2856-56.9577 31.2873-56.9724 31.2896-56.9869 31.2918-57.0013 31.2946-57.0156 31.2979-57.0298 31.3012-57.0441 31.305-57.0582 31.3093-57.0722 31.3136-57.0861 31.3184-57.0999 31.3238-57.1135 31.3291-57.1272 31.335-57.1406 31.3413-57.1538 31.3476-57.167 31.3543-57.1799 31.3615-57.1926 31.3688-57.2053 31.3765-57.2177 31.3847-57.2298 31.3931-57.2418 31.4019-57.2536 31.4111-57.2649 31.4201-57.2763 31.4296-57.2873 31.4395-57.298 31.4494-57.3087 31.4598-57.3191 31.4705-57.329 31.4812-57.3391 31.4922-57.3487 31.5036-57.358 31.5151-57.367 31.527-57.3756 31.5392-57.3838 31.5514-57.392 31.5638-57.3998 31.5765-57.4071 31.5891-57.4144 31.602-57.4213 31.6152-57.4277 31.6162-57.4283 31.6173-57.4288 31.6183-57.4293 32.1208-57.6647 32.4689-58.1746 32.4689-58.7662 32.4689-59.5813 31.8081-60.2421 30.993-60.2421Z" color="#000000" stroke-width="0.89162" fill="url(#linearGradient33244)"/><path d="M27.911-58.904C27.422-58.904 27.0253-58.5073 27.0253-58.0183 27.0253-57.6623 27.2355-57.3559 27.5384-57.2152 27.6598-57.1564 27.7369-57.0333 27.7369-56.8984 27.7369-56.7635 27.6598-56.6405 27.5384-56.5816L27.5384-56.5807C27.2356-56.44 27.0253-56.1335 27.0253-55.7776 27.0253-55.2886 27.422-54.8919 27.911-54.8919 28.0109-54.8919 28.1066-54.9089 28.1963-54.9394 28.1353-55.0819 28.1017-55.2392 28.1017-55.404 28.1017-55.7942 28.2911-56.1394 28.5828-56.3543 28.5015-56.4489 28.4005-56.5261 28.2862-56.5796L28.2862-56.5806C28.2855-56.5808 28.2848-56.581 28.2841-56.5811 28.2762-56.585 28.2684-56.5891 28.2608-56.5935 28.2533-56.5979 28.2458-56.6026 28.2386-56.6075 28.2314-56.6124 28.2243-56.6176 28.2174-56.623 28.2105-56.6284 28.2038-56.6341 28.1973-56.64 28.1908-56.6462 28.1846-56.6525 28.1787-56.6592 28.1727-56.6655 28.167-56.672 28.1616-56.6788 28.1562-56.6857 28.151-56.6927 28.1461-56.7 28.1412-56.7072 28.1365-56.7146 28.1322-56.7222 28.1277-56.7298 28.1236-56.7376 28.1198-56.7455 28.116-56.7534 28.1126-56.7615 28.1094-56.7697 28.1062-56.7779 28.1032-56.7862 28.1006-56.7945 28.0981-56.8029 28.0958-56.8113 28.0939-56.8199 28.0919-56.8284 28.0901-56.837 28.0887-56.8457 28.0873-56.8544 28.0863-56.8632 28.0856-56.8721 28.0851-56.8808 28.0849-56.8896 28.0851-56.8984 28.0849-56.9072 28.0851-56.916 28.0856-56.9248 28.0863-56.9336 28.0873-56.9424 28.0887-56.9511 28.0901-56.9596 28.0919-56.9681 28.0939-56.9765 28.0958-56.9851 28.0981-56.9938 28.1006-57.0023 28.1032-57.0107 28.1062-57.0189 28.1094-57.0271 28.1126-57.0351 28.116-57.0431 28.1198-57.0509 28.1236-57.0588 28.1277-57.0665 28.1322-57.0741 28.1365-57.0819 28.1412-57.0895 28.1461-57.0969 28.151-57.1039 28.1562-57.1108 28.1616-57.1175 28.167-57.1245 28.1727-57.1312 28.1787-57.1377 28.1846-57.1441 28.1908-57.1503 28.1973-57.1563 28.2038-57.1622 28.2105-57.1679 28.2174-57.1733 28.2243-57.1788 28.2314-57.1839 28.2386-57.1888 28.2458-57.1937 28.2533-57.1984 28.2608-57.2028 28.2684-57.2072 28.2762-57.2113 28.2841-57.2152 28.2848-57.2155 28.2855-57.2158 28.2862-57.2162 28.4005-57.2697 28.5015-57.3469 28.5828-57.4415 28.2911-57.6564 28.1017-58.0016 28.1017-58.3918 28.1017-58.5566 28.1353-58.7139 28.1963-58.8564 28.1066-58.8869 28.0109-58.9039 27.911-58.9039Z" color="#000000" stroke-width="0.53494" fill="url(#linearGradient33246)" opacity="0.38"/></g></g></svg>